# xmcd
#
# Track frame offsets: 
#        150
#        12009
#        22634
#        37233
#        50679
#        64458
#        78109
#        90678
#        106186
#        120394
#        133972
#        147184
#        161212
#        174304
#        186446
#        200988
#        213502
#        228127
#        240220
#        253067
#        264368
#        275423
#        288258
#        300797
#        314113
#
# Disc length: 4362 seconds
#
# Revision: 0
# Processed by: cddbd v1.5.1PL0 Copyright (c) Steve Scherf et al.
# Submitted via: ExactAudioCopy v0.95a5
#
DISCID=60110819
DTITLE=Ernest Tubb - Walking The Floor Over You (The Hits Vol.1)
DYEAR=2003
DGENRE=Country
TTITLE0=Walking The Floor Over You
TTITLE1=Try Me One More Time
TTITLE2=Soldier's Last Letter
TTITLE3=Yesterday's Tears
TTITLE4=Keep My Mem'ry In Your Heart
TTITLE5=Tomorrow Never Comes
TTITLE6=Careless Darlin'
TTITLE7=It's Been So Long Darling
TTITLE8=Rainbow At Midnight
TTITLE9=Filipino Baby
TTITLE10=Drivin Nails In My Coffin
TTITLE11=Don't Look Now (But Your Broken Heart Is Showing)
TTITLE12=So Round So Firm So Fully Packed
TTITLE13=I'll Step Aside
TTITLE14=Seaman's Blues
TTITLE15=You Nearly Lose Your Mind
TTITLE16=Forever Is Ending Today
TTITLE17=That Wild And Wicked Look In Your Eye
TTITLE18=Have You Ever Been Lonely (Have You Ever Been Blue)
TTITLE19=Let's Say Goodbye Like We Said Hello
TTITLE20=Till The End Of The World
TTITLE21=I'm Biting My Fingernails And Thinking Of You
TTITLE22=Don't Rob Another Man's Castle
TTITLE23=Daddy When Is Mommy Coming Home
TTITLE24=Mean Mama Blues
EXTD=
EXTT0=
EXTT1=
EXTT2=
EXTT3=
EXTT4=
EXTT5=
EXTT6=
EXTT7=
EXTT8=
EXTT9=
EXTT10=
EXTT11=
EXTT12=
EXTT13=
EXTT14=
EXTT15=
EXTT16=
EXTT17=
EXTT18=
EXTT19=
EXTT20=
EXTT21=
EXTT22=
EXTT23=
EXTT24=
PLAYORDER=
